<?xml version="1.0" encoding="utf-8"?>
<!-- Generator: Adobe Illustrator 27.5.0, SVG Export Plug-In . SVG Version: 6.00 Build 0)  -->
<svg version="1.1" xmlns="http://www.w3.org/2000/svg" xmlns:xlink="http://www.w3.org/1999/xlink" x="0px" y="0px"
	 viewBox="0 100 500 350" style="enable-background:new 0 0 300 300;" xml:space="preserve">
<g id="BACKGROUND">
	<rect style="fill:transparent" width="300" height="150"/>
</g>
<g id="OBJECTS">
	<g>
		<path style="fill:none;stroke:#414143;stroke-width:2;stroke-linecap:round;stroke-miterlimit:10;" d="M169.202,207.822
			c17.034,0,19.873,27.874,19.873,27.874"/>
		<path style="fill:#49DAC2;" d="M141.926,226.922v23.168c1.912-0.375,3.886-0.576,5.907-0.576c16.888,0,30.578,13.69,30.578,30.579
			c0,8.959-5.45,17.679-11.745,24.774h43.303c5.236,0,9.48-4.245,9.48-9.48v-68.465H141.926z"/>
		<path style="fill:#414143;" d="M202.501,226.922v68.465c0,5.235,4.245,9.48,9.48,9.48h8.264c5.236,0,9.48-4.245,9.48-9.48v-68.465
			H202.501z"/>
		<path style="fill:#FBF8EE;" d="M151.522,235.827c0,1.354-1.098,2.451-2.453,2.451c-1.354,0-2.451-1.098-2.451-2.451
			c0-1.355,1.098-2.453,2.451-2.453C150.425,233.374,151.522,234.472,151.522,235.827z"/>
		<path style="fill:#FBF8EE;" d="M182.494,235.827c0,1.354-1.098,2.451-2.453,2.451c-1.353,0-2.451-1.098-2.451-2.451
			c0-1.355,1.098-2.453,2.451-2.453C181.396,233.374,182.494,234.472,182.494,235.827z"/>
		<path style="fill:#FBF8EE;" d="M222.628,235.827c0,1.354-1.098,2.451-2.453,2.451c-1.354,0-2.451-1.098-2.451-2.451
			c0-1.355,1.098-2.453,2.451-2.453C221.531,233.374,222.628,234.472,222.628,235.827z"/>
		<path style="fill:none;stroke:#414143;stroke-width:2;stroke-linecap:round;stroke-miterlimit:10;" d="M180.041,235.697
			c0,0,2.969-27.874,20.003-27.874c17.034,0,19.873,27.874,19.873,27.874"/>
		<path style="fill:none;stroke:#414143;stroke-width:2;stroke-linecap:round;stroke-miterlimit:10;" d="M149.2,235.697
			c0,0,2.967-27.874,20.002-27.874"/>
		<path style="fill:#FCB041;" d="M147.429,255.986c-12.951,0-23.45,10.499-23.45,23.451c0,16.55,23.45,31.563,23.45,31.563
			s23.451-15.282,23.451-31.563C170.88,266.485,160.38,255.986,147.429,255.986z M147.43,292.303
			c-8.44,0-15.282-6.841-15.282-15.282c0-8.44,6.842-15.282,15.282-15.282c8.439,0,15.282,6.842,15.282,15.282
			C162.712,285.462,155.869,292.303,147.43,292.303z"/>
		<path style="fill:#FCB041;" d="M135.823,301.541c5.822,5.754,11.605,9.459,11.605,9.459s23.451-15.282,23.451-31.563
			c0-1.456-0.14-2.878-0.393-4.26C171.566,288.976,153.765,306.04,135.823,301.541z"/>
		<path style="opacity:0.5;fill:#49DAC2;" d="M190.589,304.867c-3.112-18.857-9.721-36.928-22.049-47.27
			c6.066,5.588,9.871,13.596,9.871,22.495c0,8.959-5.45,17.679-11.745,24.774H190.589z"/>
		<path style="fill:#FCB041;" d="M147.43,288.167c-6.156,0-11.146-4.989-11.146-11.146c0-6.156,4.99-11.147,11.146-11.147
			c6.155,0,11.146,4.99,11.146,11.147C158.576,283.178,153.585,288.167,147.43,288.167z"/>
	</g>
</g>
<g id="TEXTS">
	<g>
		<g>
			<text transform="matrix(1 0 0 1 248.3621 260.4717)" style="fill:#36BA98; font-family:'Poppins-Bold'; font-size:85.9196px;">Vue</text>
			<g>
				<text transform="matrix(1 0 0 1 248.3612 303.3467)" style="fill:#FF8343; font-family:'Poppins-Bold'; font-size:85.9196px;">Shop</text>
			</g>
		</g>
	</g>
</g>
</svg>
